<svg width="39" height="39" viewBox="0 0 39 39" fill="none" xmlns="http://www.w3.org/2000/svg">
<path d="M25.9821 6.5L20.9982 11.4768C20.4498 12.0244 20.02 12.6774 19.7338 13.3947L19.6029 13.7586L18.4022 17.4878C18.1751 18.1928 18.1675 18.9501 18.3805 19.6596C18.9358 21.5095 20.825 22.5938 22.6808 22.1765L22.9335 22.1102L26.7158 20.975C27.4869 20.7434 28.1986 20.3513 28.8049 19.8261L29.099 19.5526L35.7502 12.9122V27.2262C35.7502 30.1429 33.3856 32.5075 30.4689 32.5075H8.53141C5.61465 32.5075 3.25 30.1429 3.25 27.2262L3.25063 20.4022L3.37355 20.3508L3.49248 20.2849L9.60157 16.445L9.76108 16.3603C10.305 16.1213 10.9564 16.3103 11.282 16.8283C11.4806 17.1444 11.5218 17.5307 11.4014 17.8769L11.3277 18.0463L9.36512 21.76L9.25124 21.9952C8.48308 23.7354 9.18174 25.7987 10.8894 26.701C11.897 27.2335 13.0893 27.2631 14.1155 26.7948L14.391 26.6547L17.259 25.0357L17.3973 24.9442C17.8744 24.5799 18.0208 23.9101 17.7158 23.3737C17.4107 22.8374 16.7601 22.6208 16.2031 22.8447L16.0539 22.9169L13.1955 24.5305L13.0364 24.6056C12.7102 24.7314 12.3424 24.7119 12.0283 24.5459C11.4828 24.2577 11.2462 23.614 11.4528 23.0505L11.5202 22.899L13.4828 19.1852L13.6119 18.9147C14.0813 17.8176 13.9874 16.5522 13.3457 15.5312C12.32 13.8993 10.2168 13.3561 8.5408 14.2446L8.30445 14.3814L3.25 17.5581V11.7812C3.25 8.96507 5.45439 6.66371 8.23171 6.50835L8.53141 6.5H25.9821ZM34.4104 5.76039L34.6219 5.95642L34.8177 6.16806C36.0579 7.61699 35.992 9.79961 34.6203 11.1704L27.6638 18.1152C27.2365 18.5417 26.7101 18.8558 26.1318 19.0294L22.3496 20.1648C21.49 20.4228 20.584 19.9352 20.326 19.0755C20.2312 18.7603 20.2347 18.4236 20.3356 18.1103L21.5363 14.3812C21.7146 13.8279 22.022 13.325 22.4333 12.9143L29.4057 5.95344C30.7785 4.58289 32.9618 4.51883 34.4104 5.76039Z" fill="#CCD2DA"/>
</svg>
