<svg width="31" height="30" viewBox="0 0 31 30" fill="none" xmlns="http://www.w3.org/2000/svg">
<path d="M22.9988 11.9824C21.688 12.7647 20.8783 14.1059 20.8783 15.5961C20.8783 17.2725 21.9193 18.8 23.5 19.4333C23.1916 20.402 22.7289 21.2961 22.1506 22.1157C21.3024 23.2706 20.4157 24.4627 19.1048 24.4627C17.794 24.4627 17.4084 23.7176 15.8663 23.7176C14.3627 23.7176 13.8229 24.5 12.5892 24.5C11.3554 24.5 10.5072 23.4196 9.54337 22.0784C8.27108 20.2157 7.53855 18.0549 7.5 15.7824C7.5 12.0941 9.96747 10.1196 12.4349 10.1196C13.7458 10.1196 14.8253 10.9392 15.6349 10.9392C16.406 10.9392 17.6398 10.0824 19.1048 10.0824C20.647 10.0451 22.112 10.7529 22.9988 11.9824ZM18.4108 8.51765C19.0663 7.77255 19.4133 6.84118 19.4518 5.87255C19.4518 5.76078 19.4518 5.61176 19.4133 5.5C18.2952 5.61176 17.2542 6.13333 16.5217 6.95294C15.8663 7.66078 15.4807 8.5549 15.4422 9.52353C15.4422 9.63529 15.4422 9.74706 15.4807 9.85882C15.5578 9.85882 15.6735 9.89608 15.7506 9.89608C16.7916 9.82157 17.7554 9.3 18.4108 8.51765Z" fill="white"/>
</svg>
