<svg width="39" height="39" viewBox="0 0 39 39" fill="none" xmlns="http://www.w3.org/2000/svg">
<path d="M32.8666 31.4801C32.7789 31.6382 32.6526 31.7695 32.5005 31.8607C32.3484 31.952 32.1759 32 32.0003 32H7.99903C7.82357 31.9998 7.65125 31.9516 7.49936 31.8603C7.34748 31.7689 7.22138 31.6377 7.13373 31.4796C7.04607 31.3216 6.99995 31.1423 7 30.9599C7.00005 30.7774 7.04625 30.5982 7.13398 30.4402C9.03784 27.0178 11.9717 24.5637 15.3957 23.4004C13.7021 22.352 12.3862 20.7546 11.6502 18.8533C10.9142 16.9521 10.7988 14.8522 11.3216 12.8762C11.8445 10.9001 12.9767 9.15716 14.5444 7.91496C16.1121 6.67276 18.0287 6 19.9997 6C21.9707 6 23.8872 6.67276 25.455 7.91496C27.0227 9.15716 28.1549 10.9001 28.6777 12.8762C29.2006 14.8522 29.0852 16.9521 28.3492 18.8533C27.6132 20.7546 26.2973 22.352 24.6037 23.4004C28.0276 24.5637 30.9615 27.0178 32.8654 30.4402C32.9534 30.5982 32.9998 30.7774 33 30.96C33.0002 31.1425 32.9542 31.3219 32.8666 31.4801Z" fill="#CCD2DA"/>
</svg>
